# xmcd
#
# Track frame offsets: 
#        183
#        13963
#        26403
#        38505
#        51718
#        63093
#        72120
#        83863
#        93835
#        104875
#        115870
#        128088
#        138410
#        151348
#        162058
#        175430
#        187233
#        200118
#        212565
#        222468
#
# Disc length: 3163 seconds
#
# Revision: 2
# Processed by: cddbd v1.4PL0 Copyright (c) Steve Scherf et al.
# Submitted via: ExactAudioCopy v0.90b2
#
DISCID=280c5914
DTITLE=Billie Jo Spears - Stand By Your Man
DYEAR=1900
DGENRE=Country
TTITLE0=Mr. Walker Its All Over
TTITLE1=Keep Me From Crying Today
TTITLE2=Look Out Your Window
TTITLE3=Tips And Tables
TTITLE4=Stand By Your Man
TTITLE5=Hold Me Tight
TTITLE6=That Man
TTITLE7=My Arms Stay Open Late
TTITLE8=You Couldn't Even Light His Candle
TTITLE9=Thanks For Hangin' Round World
TTITLE10=What Have They Done To My Song
TTITLE11=It Makes No Difference Now
TTITLE12=He's On The Run Again
TTITLE13=I'm So Lonesome I Could Cry
TTITLE14=Fever
TTITLE15=Ease The Want In Me
TTITLE16=Dallas
TTITLE17=Sunshine
TTITLE18=Souvenirs and Californian Memories
TTITLE19=I'll Never Be Free
EXTD=
EXTT0=
EXTT1=
EXTT2=
EXTT3=
EXTT4=
EXTT5=
EXTT6=
EXTT7=
EXTT8=
EXTT9=
EXTT10=
EXTT11=
EXTT12=
EXTT13=
EXTT14=
EXTT15=
EXTT16=
EXTT17=
EXTT18=
EXTT19=
PLAYORDER=
